<svg width="32" height="32" viewBox="0 0 32 32" fill="none" xmlns="http://www.w3.org/2000/svg">
  <rect width="32" height="32" rx="7" fill="#0f172a"/>
  <path d="M16 4L6 7.5v7.2c0 5.9 4.25 11.3 10 12.8 5.75-1.5 10-6.9 10-12.8V7.5L16 4z" fill="#22d3ee"/>
  <path d="M16 6.3L8 9v5.9c0 4.75 3.4 9.1 8 10.4 4.6-1.3 8-5.65 8-10.4V9l-8-2.7z" fill="#0f172a"/>
  <rect x="12" y="15" width="8" height="6.5" rx="1" fill="#22d3ee"/>
  <path d="M13.5 15V13a2.5 2.5 0 015 0v2" stroke="#22d3ee" stroke-width="1.5" fill="none" stroke-linecap="round"/>
  <circle cx="16" cy="18" r="0.9" fill="#0f172a"/>
</svg>
